<svg width="25" height="24" viewBox="0 0 25 24" fill="none" xmlns="http://www.w3.org/2000/svg">
<mask id="mask0_2_18" style="mask-type:alpha" maskUnits="userSpaceOnUse" x="0" y="0" width="25" height="24">
<rect x="0.549805" width="24" height="24" fill="white"/>
</mask>
<g mask="url(#mask0_2_18)">
<path d="M16.5498 11C16.8331 11 17.0706 10.9042 17.2623 10.7125C17.454 10.5208 17.5498 10.2833 17.5498 10C17.5498 9.71667 17.454 9.47917 17.2623 9.2875C17.0706 9.09583 16.8331 9 16.5498 9C16.2665 9 16.029 9.09583 15.8373 9.2875C15.6456 9.47917 15.5498 9.71667 15.5498 10C15.5498 10.2833 15.6456 10.5208 15.8373 10.7125C16.029 10.9042 16.2665 11 16.5498 11ZM8.5498 9H13.5498V7H8.5498V9ZM5.0498 21C4.48314 19.1 3.9248 17.2042 3.3748 15.3125C2.8248 13.4208 2.5498 11.4833 2.5498 9.5C2.5498 7.96667 3.08314 6.66667 4.1498 5.6C5.21647 4.53333 6.51647 4 8.0498 4H13.0498C13.5331 3.36667 14.1206 2.875 14.8123 2.525C15.504 2.175 16.2498 2 17.0498 2C17.4665 2 17.8206 2.14583 18.1123 2.4375C18.404 2.72917 18.5498 3.08333 18.5498 3.5C18.5498 3.6 18.5373 3.7 18.5123 3.8C18.4873 3.9 18.4581 3.99167 18.4248 4.075C18.3581 4.25833 18.2956 4.44583 18.2373 4.6375C18.179 4.82917 18.1331 5.025 18.0998 5.225L20.3748 7.5H22.5498V14.475L19.7248 15.4L18.0498 21H12.5498V19H10.5498V21H5.0498ZM6.5498 19H8.5498V17H14.5498V19H16.5498L18.0998 13.85L20.5498 13.025V9.5H19.5498L16.0498 6C16.0498 5.66667 16.0706 5.34583 16.1123 5.0375C16.154 4.72917 16.2165 4.41667 16.2998 4.1C15.8165 4.23333 15.3915 4.4625 15.0248 4.7875C14.6581 5.1125 14.3915 5.51667 14.2248 6H8.0498C7.08314 6 6.25814 6.34167 5.5748 7.025C4.89147 7.70833 4.5498 8.53333 4.5498 9.5C4.5498 11.1333 4.7748 12.7292 5.2248 14.2875C5.6748 15.8458 6.11647 17.4167 6.5498 19Z" fill="#255BE3"/>
</g>
</svg>
