<svg width="25" height="24" viewBox="0 0 25 24" fill="none" xmlns="http://www.w3.org/2000/svg">
<mask id="mask0_2002_75" style="mask-type:alpha" maskUnits="userSpaceOnUse" x="0" y="0" width="25" height="24">
<rect x="0.549683" width="24" height="24" fill="white"/>
</mask>
<g mask="url(#mask0_2002_75)">
<path d="M16.5497 11C16.833 11 17.0705 10.9042 17.2622 10.7125C17.4538 10.5208 17.5497 10.2833 17.5497 10C17.5497 9.71667 17.4538 9.47917 17.2622 9.2875C17.0705 9.09583 16.833 9 16.5497 9C16.2663 9 16.0288 9.09583 15.8372 9.2875C15.6455 9.47917 15.5497 9.71667 15.5497 10C15.5497 10.2833 15.6455 10.5208 15.8372 10.7125C16.0288 10.9042 16.2663 11 16.5497 11ZM8.54968 9H13.5497V7H8.54968V9ZM5.04968 21C4.48302 19.1 3.92468 17.2042 3.37468 15.3125C2.82468 13.4208 2.54968 11.4833 2.54968 9.5C2.54968 7.96667 3.08302 6.66667 4.14968 5.6C5.21635 4.53333 6.51635 4 8.04968 4H13.0497C13.533 3.36667 14.1205 2.875 14.8122 2.525C15.5038 2.175 16.2497 2 17.0497 2C17.4663 2 17.8205 2.14583 18.1122 2.4375C18.4038 2.72917 18.5497 3.08333 18.5497 3.5C18.5497 3.6 18.5372 3.7 18.5122 3.8C18.4872 3.9 18.458 3.99167 18.4247 4.075C18.358 4.25833 18.2955 4.44583 18.2372 4.6375C18.1788 4.82917 18.133 5.025 18.0997 5.225L20.3747 7.5H22.5497V14.475L19.7247 15.4L18.0497 21H12.5497V19H10.5497V21H5.04968ZM6.54968 19H8.54968V17H14.5497V19H16.5497L18.0997 13.85L20.5497 13.025V9.5H19.5497L16.0497 6C16.0497 5.66667 16.0705 5.34583 16.1122 5.0375C16.1538 4.72917 16.2163 4.41667 16.2997 4.1C15.8163 4.23333 15.3913 4.4625 15.0247 4.7875C14.658 5.1125 14.3913 5.51667 14.2247 6H8.04968C7.08302 6 6.25802 6.34167 5.57468 7.025C4.89135 7.70833 4.54968 8.53333 4.54968 9.5C4.54968 11.1333 4.77468 12.7292 5.22468 14.2875C5.67468 15.8458 6.11635 17.4167 6.54968 19Z" fill="#6B7280"/>
</g>
</svg>
