<svg width="237" height="81" viewBox="0 0 237 81" fill="none" xmlns="http://www.w3.org/2000/svg">
<path d="M22.464 33.008C22.752 33.26 22.86 33.476 22.86 33.62C22.86 33.764 22.788 33.836 22.608 33.836C22.464 33.836 22.248 33.764 22.032 33.548C21.348 33.008 20.556 32.792 19.764 32.792C18.684 32.792 17.532 33.224 16.488 33.872C16.776 33.836 17.028 33.836 17.28 33.836C21.6 33.836 23.436 36.464 23.436 41.504C23.436 48.092 18.252 60.548 10.44 60.548C10.404 60.548 10.404 60.548 10.404 60.548C7.38 60.548 5.184 58.712 4.572 55.76C4.464 55.112 4.392 54.428 4.392 53.708C4.392 53.42 4.392 53.132 4.428 52.844C1.764 52.016 0 49.964 0 47.192C0 40.568 7.776 35.492 13.5 34.268C14.112 33.728 14.724 33.26 15.372 32.864C16.56 32.108 17.784 31.676 18.972 31.676C20.16 31.676 21.312 32.108 22.464 33.008ZM14.58 35.348C10.224 39.308 6.588 46.76 5.832 52.268C6.156 52.304 6.516 52.304 6.912 52.304C8.316 52.304 10.044 52.088 12.06 51.584C12.096 51.584 12.132 51.584 12.168 51.584C12.6 51.584 13.212 52.16 13.212 52.484C13.212 52.556 13.14 52.628 13.032 52.664C11.124 53.132 9.396 53.348 7.92 53.348C7.128 53.348 6.372 53.276 5.724 53.168C5.688 53.636 5.652 54.14 5.652 54.572C5.652 57.164 6.444 59.432 9.576 59.468C9.612 59.468 9.612 59.468 9.612 59.468C17.244 59.468 22.176 46.94 22.176 40.604C22.176 36.212 20.808 34.88 18.072 34.88C17.064 34.88 15.912 35.06 14.58 35.348ZM11.664 36.176C7.128 37.832 1.26 42.512 1.26 47.912C1.26 50.144 2.376 51.476 4.5 52.052C5.076 46.688 8.208 40.244 11.664 36.176ZM27.8024 44.636C27.8744 44.6 27.9104 44.564 27.9824 44.564C28.3784 44.564 28.9904 45.176 28.9904 45.5C28.9904 45.572 28.9904 45.608 28.9184 45.644C27.4424 46.508 26.7584 47.228 26.7584 48.2C26.7584 48.776 26.9744 49.46 27.4064 50.288C28.8824 49.64 30.6824 49.028 32.6624 48.596C32.6984 48.56 32.7344 48.56 32.7704 48.56C33.2024 48.56 33.8144 49.172 33.8144 49.496C33.8144 49.568 33.7424 49.64 33.6344 49.676C31.4384 50.18 29.4944 50.828 27.9464 51.548C28.0184 51.728 28.0184 51.944 28.0184 52.124C28.0184 52.916 27.5144 53.708 25.8224 54.464C25.3904 54.644 25.0304 54.788 24.6704 54.788C24.2384 54.788 23.8784 54.572 23.4824 53.924C23.4104 53.744 23.3744 53.6 23.3744 53.456C23.3384 52.268 25.7504 51.08 26.5784 50.648C26.0024 49.532 25.4264 48.524 25.4264 47.588C25.4264 46.616 26.0024 45.68 27.8024 44.636ZM25.2824 53.168C25.7864 52.916 26.1104 52.664 26.3624 52.412C25.9664 52.628 25.6064 52.88 25.2824 53.168ZM33.8265 46.22C33.8625 46.148 33.9345 46.112 34.0425 46.112C34.4025 46.112 35.0865 46.652 35.0865 46.976C35.0865 47.048 35.0505 47.084 35.0505 47.084C35.0505 47.12 33.9705 49.244 33.1065 51.116C34.2945 49.784 37.9665 45.572 39.1185 45.176C39.2265 45.14 39.3345 45.14 39.4425 45.14C40.1625 45.14 40.7745 46.004 40.7745 46.796C40.7745 47.444 40.5585 48.308 40.2705 49.208C40.9545 48.632 41.7105 48.128 42.4305 48.128C42.8625 48.128 43.2945 48.308 43.6545 48.848C43.9785 49.28 44.0865 49.712 44.0865 50.18C44.0865 50.756 43.9425 51.368 43.8705 51.944C45.3465 51.836 47.9385 49.532 49.1985 48.632C49.2345 48.596 49.2705 48.596 49.3425 48.596C49.7025 48.596 50.2425 49.208 50.2425 49.568C50.2425 49.64 50.2065 49.712 50.1705 49.748C49.0905 50.54 46.2825 53.024 44.5545 53.024C44.4465 53.024 44.3745 53.024 44.2665 52.988C43.7985 52.88 43.3305 52.628 43.0425 52.268C42.7545 51.908 42.6465 51.548 42.6465 51.152C42.6465 50.54 42.8625 49.892 42.8265 49.28C41.5305 49.748 39.2625 52.196 39.0465 52.448C38.9745 52.52 38.9025 52.52 38.8305 52.52C38.4345 52.52 37.7865 51.98 37.7865 51.656C37.7865 51.62 37.7865 51.584 37.8225 51.548C37.8225 51.548 39.1545 48.488 39.4425 46.688C37.6785 47.948 32.7105 54.14 31.7745 54.14C31.7385 54.14 31.7385 54.14 31.7025 54.14C31.3785 54.032 30.8745 53.672 30.8745 53.24C30.8745 52.052 33.8265 46.22 33.8265 46.22ZM54.2019 47.768C54.0939 48.056 53.4819 47.732 53.2659 47.516C51.7899 47.948 49.8099 49.46 49.8099 50.936C49.8099 51.08 49.8459 51.224 49.8819 51.332C51.4299 51.188 54.4899 47.804 54.4899 47.804C54.5619 47.696 54.6699 47.66 54.7779 47.66C55.2099 47.66 55.7499 48.344 55.7499 48.596C55.7499 48.632 55.7139 48.668 55.7139 48.668C55.6419 49.172 55.6059 49.604 55.6059 50C55.6059 50.396 55.6419 50.72 55.7139 50.972C55.7499 51.116 55.8939 51.188 56.1099 51.188C57.3339 51.188 60.8619 48.956 61.3659 48.632C61.4019 48.596 61.4739 48.596 61.5099 48.596C61.9059 48.596 62.4819 49.172 62.4819 49.496C62.4819 49.568 62.4459 49.604 62.4099 49.64C60.8619 50.612 58.5939 52.232 56.8659 52.232C56.6859 52.232 56.5059 52.232 56.3259 52.196C55.2459 51.908 54.5619 51.188 54.3819 50.036C53.2659 51.116 51.6099 52.448 50.5299 52.448C50.4579 52.448 50.4219 52.448 50.3499 52.412C49.5939 52.34 48.8739 51.692 48.6579 50.864C48.5859 50.684 48.5859 50.468 48.5859 50.288C48.5859 48.488 50.7819 46.868 52.2939 46.436C52.4739 46.4 52.6539 46.364 52.8339 46.364C53.3019 46.364 53.6979 46.544 54.0219 46.94C54.2379 47.192 54.3099 47.48 54.2019 47.768ZM70.074 48.704C70.398 48.38 71.37 49.424 71.046 49.712C69.534 51.188 64.494 57.524 62.766 56.948C62.406 56.804 62.046 56.516 61.83 56.192C60.966 54.896 63.63 50.828 64.386 49.316C63.234 49.676 62.01 49.82 61.038 49.172C59.31 47.984 60.39 45.392 61.722 44.996C62.514 44.78 63.45 45.572 63.594 46.328C63.702 46.76 63.594 47.444 63.162 48.308C63.594 48.2 64.458 47.804 64.818 47.804C65.394 47.84 65.754 48.164 65.97 48.704C66.33 49.676 63.126 54.212 62.838 55.868C64.566 55.04 68.418 50.36 70.074 48.704ZM61.362 48.488C61.974 47.516 62.262 46.796 62.334 46.292C62.118 46.472 61.866 46.832 61.65 47.3C61.614 47.336 61.254 48.38 61.362 48.488ZM85.4921 47.228C85.4561 47.192 85.4201 47.156 85.3481 47.156C84.6641 48.38 82.2881 53.276 80.2001 53.276C79.9121 53.276 79.6601 53.168 79.4081 52.988C78.7241 52.484 78.4001 51.584 78.4001 50.612C78.4001 50.036 78.5081 49.424 78.7241 48.848C79.4441 46.94 80.9201 45.464 82.7921 45.464C83.2961 45.464 83.8361 45.572 84.4121 45.788C87.1481 40.856 89.8121 34.88 89.8121 34.844C89.8481 34.772 89.9201 34.736 90.0281 34.736C90.3881 34.736 91.2161 35.276 91.0721 35.636C89.2001 40.28 83.4761 55.544 83.4761 59.432C83.4761 59.612 83.5121 59.756 83.5121 59.9C83.5121 60.044 83.4401 60.08 83.3321 60.08C82.9721 60.08 82.3601 59.684 82.2521 59.252C82.2521 59.108 82.2161 58.892 82.2161 58.712C82.2161 56.552 83.7281 52.088 85.4921 47.228ZM83.9441 46.58C83.8361 46.58 83.7641 46.58 83.6561 46.58C81.3881 46.58 79.5161 49.82 79.5161 51.584C79.5161 51.836 79.5521 52.052 79.6241 52.232C80.7401 51.908 82.6481 48.884 83.9441 46.58ZM90.0554 51.44C89.8754 51.512 89.7314 51.872 89.7314 52.232C89.7314 52.556 89.8394 52.88 90.1274 52.988C90.3434 53.06 90.5594 53.06 90.8114 53.06C93.2594 53.06 97.3274 50.036 98.8754 48.668C98.9114 48.632 98.9474 48.632 99.0194 48.632C99.3794 48.632 99.9554 49.244 99.9554 49.64C99.9554 49.712 99.9194 49.748 99.8834 49.784C99.8474 49.82 94.9154 54.14 91.5674 54.14C91.3874 54.14 91.2434 54.14 91.0994 54.14C89.2994 53.888 88.6154 52.916 88.6154 51.728C88.6154 49.388 91.2074 46.256 93.1154 46.148C93.1514 46.148 93.1874 46.148 93.1874 46.148C94.0874 46.148 94.9874 46.94 94.9874 47.84C94.9874 48.056 94.9154 48.272 94.8074 48.488C93.9074 50 90.0554 51.44 90.0554 51.44ZM91.0274 49.496C92.0354 48.992 93.4754 48.092 93.6914 47.3C92.8634 47.516 91.7834 48.524 91.0274 49.496ZM118.426 47.804C118.354 47.84 118.318 47.84 118.246 47.84C117.85 47.84 117.238 47.264 117.238 46.94C117.238 46.868 117.274 46.832 117.31 46.796C121.918 44.204 125.122 40.604 126.382 37.688C126.598 37.22 126.994 36.068 126.994 35.132C126.994 34.664 126.886 34.268 126.598 34.088C126.346 33.872 125.95 33.8 125.374 33.8C125.086 33.8 124.726 33.836 124.294 33.872C117.886 34.88 108.274 49.1 108.274 55.796C108.274 57.524 108.922 58.784 110.47 59.144C110.794 59.216 111.118 59.252 111.478 59.252C117.562 59.252 127.354 48.74 127.39 48.704C127.426 48.668 127.498 48.632 127.534 48.632C127.894 48.632 128.434 49.28 128.434 49.676C128.434 49.748 128.434 49.784 128.398 49.82C128.362 49.856 118.606 60.332 112.198 60.332C111.766 60.332 111.37 60.296 111.01 60.188C108.958 59.72 107.482 58.028 107.158 55.976C107.086 55.616 107.086 55.256 107.05 54.896C107.086 47.408 117.238 33.728 123.394 32.792C123.754 32.756 124.114 32.72 124.438 32.72C125.446 32.72 126.238 32.972 126.886 33.404C127.858 34.124 128.254 35.024 128.254 36.032C128.254 36.86 128.002 37.724 127.606 38.588C126.346 41.54 123.07 45.176 118.426 47.804ZM136.641 38.156C136.605 38.192 136.533 38.228 136.461 38.228C136.101 38.228 135.453 37.652 135.453 37.328C135.453 37.256 135.453 37.22 135.489 37.148C136.785 35.96 137.361 35.24 137.361 34.88C137.361 34.592 137.073 34.484 136.605 34.484C136.029 34.484 135.165 34.628 134.085 34.844C130.737 35.528 127.281 37.04 124.545 38.768C122.997 39.776 119.577 42.332 119.577 44.528C119.577 44.672 119.577 44.78 119.613 44.924C120.261 48.056 130.485 47.516 130.485 53.096C130.485 56.48 124.869 59.612 121.017 59.612C120.693 59.612 120.333 59.576 120.009 59.504C118.677 59.288 117.597 58.64 117.021 57.416C116.985 57.344 116.985 57.272 116.985 57.2C116.949 57.092 117.057 57.02 117.165 57.02C117.489 57.02 117.993 57.308 118.173 57.74C118.353 58.1 118.821 58.352 119.397 58.424C119.649 58.496 119.937 58.496 120.261 58.496C123.753 58.496 129.225 55.508 129.225 52.412C129.225 48.56 121.269 49.208 118.749 45.284C118.461 44.816 118.317 44.348 118.317 43.844C118.317 41.396 121.701 38.876 123.429 37.76C126.201 35.996 129.729 34.448 133.113 33.764C133.833 33.62 134.769 33.44 135.633 33.44C136.497 33.44 137.361 33.62 137.937 34.196C138.261 34.484 138.405 34.844 138.405 35.204C138.405 36.536 136.677 38.156 136.641 38.156ZM139.156 47.768C139.012 48.092 138.4 47.696 138.22 47.516C136.888 47.912 134.764 49.388 134.764 50.936C134.764 51.116 134.8 51.26 134.836 51.44C134.872 51.44 134.872 51.44 134.908 51.44C136.132 51.44 139.408 47.804 139.444 47.804C139.552 47.66 139.912 47.768 140.236 48.02C140.524 48.236 140.668 48.488 140.632 48.668C140.668 49.028 140.416 49.64 140.416 50.108C140.416 50.288 140.452 50.468 140.56 50.576C140.632 50.648 140.74 50.72 140.884 50.72C141.208 50.72 141.748 50.504 142.864 49.82C144.124 49.028 145.744 47.768 147.616 46.184C147.652 46.148 147.724 46.148 147.796 46.148C148.156 46.148 148.84 46.724 148.84 47.048C148.84 47.084 148.84 47.12 148.804 47.156C148.768 47.228 147.832 48.992 146.968 50.72C148.012 49.712 150.496 46.832 152.332 46.832C152.692 46.832 153.016 46.94 153.304 47.192C153.916 47.66 154.096 48.38 154.096 49.136C154.096 49.82 153.952 50.576 153.952 51.224C153.952 51.44 153.988 51.62 153.988 51.8C155.284 51.584 157.948 49.424 158.92 48.632C158.956 48.596 159.028 48.596 159.1 48.596C159.46 48.596 160.072 49.136 160.072 49.46C160.072 49.532 160.072 49.568 160.036 49.604C158.992 50.468 156.256 52.88 154.564 52.88C154.348 52.88 154.168 52.844 153.988 52.772C152.944 52.304 152.692 51.26 152.692 50.216C152.692 49.316 152.872 48.416 152.872 48.056C152.872 47.984 152.872 47.912 152.8 47.912C150.964 47.912 146.104 54.068 145.276 54.248C145.276 54.248 145.24 54.248 145.204 54.248C144.844 54.248 144.088 53.924 144.088 53.492C144.088 53.456 144.088 53.42 144.088 53.348C144.052 52.988 145.708 49.892 145.96 49.46C145.204 50 144.556 50.468 143.944 50.828C142.972 51.44 142.108 51.8 141.424 51.8C141.136 51.8 140.848 51.728 140.632 51.62C139.948 51.26 139.516 50.756 139.372 50C138.256 51.044 136.564 52.34 135.304 52.34C135.052 52.34 134.8 52.304 134.584 52.16C134.116 51.872 133.756 51.44 133.576 50.864C133.54 50.72 133.54 50.54 133.54 50.36C133.54 48.524 135.952 46.4 137.716 46.4C138.22 46.4 138.652 46.544 138.976 46.94C139.192 47.192 139.264 47.48 139.156 47.768ZM163.761 34.088C163.833 33.872 164.157 33.908 164.517 34.16C164.841 34.376 165.093 34.736 165.021 34.916C164.985 34.952 164.121 37.436 162.969 40.928C168.225 40.388 173.877 40.316 176.937 41.72C177.297 41.864 177.621 42.224 177.657 42.476C177.729 42.728 177.477 42.8 177.153 42.656C174.057 41.252 168.009 41.504 162.573 42.152C160.197 49.316 156.525 59.684 156.741 62.348C156.777 62.6 156.489 62.636 156.165 62.456C155.805 62.276 155.517 61.916 155.481 61.7C155.265 59.072 158.649 49.496 160.989 42.332C155.841 43.016 151.593 43.952 151.557 43.952C151.341 43.988 150.945 43.808 150.693 43.52C150.405 43.196 150.369 42.908 150.621 42.872C150.657 42.872 155.589 41.792 161.385 41.108C162.717 37.076 163.761 34.088 163.761 34.088ZM165.837 47.948C166.233 48.236 165.945 48.2 166.269 48.272C166.557 48.344 166.845 48.38 167.169 48.38C167.421 48.38 167.709 48.344 168.033 48.308C168.069 47.948 168.033 47.624 167.925 47.408C167.925 47.372 167.817 47.372 167.673 47.372C167.205 47.372 166.161 47.48 165.837 47.948ZM174.297 44.636C174.333 44.6 174.405 44.564 174.441 44.564C174.837 44.564 175.485 45.176 175.485 45.5C175.485 45.572 175.449 45.608 175.377 45.644C173.901 46.508 173.253 47.228 173.253 48.2C173.253 48.776 173.469 49.46 173.901 50.288C175.377 49.64 177.429 48.992 179.445 48.524C179.445 48.524 179.481 48.524 179.517 48.524C179.913 48.524 180.309 49.064 180.309 49.424C180.309 49.532 180.237 49.64 180.129 49.676C177.897 50.18 175.953 50.828 174.441 51.548C174.477 51.728 174.513 51.944 174.513 52.124C174.513 53.06 173.793 53.96 171.381 54.824C171.345 54.824 171.273 54.86 171.237 54.86C170.769 54.86 169.833 54.176 169.833 53.384C169.833 53.204 169.905 52.988 170.049 52.772C170.625 51.98 172.029 51.152 173.073 50.648C172.749 49.856 172.209 49.136 171.993 48.2C171.021 48.812 170.085 49.136 169.221 49.316C168.861 51.224 166.881 53.924 164.721 53.924C164.325 53.924 163.893 53.852 163.497 53.636C162.597 53.132 162.273 52.484 162.273 51.8C162.273 50.936 162.777 50 163.425 49.208C163.821 48.668 164.289 48.2 164.685 47.948C164.577 47.732 164.505 47.552 164.505 47.408C164.505 46.76 165.369 46.4 166.377 46.328C166.485 46.292 166.557 46.292 166.665 46.292C167.781 46.292 168.861 46.868 169.185 47.984C170.229 47.66 171.381 47.012 172.605 45.932C173.001 45.5 173.541 45.068 174.297 44.636ZM165.765 48.92C165.081 49.424 163.713 51.08 163.533 52.232C163.497 52.376 163.497 52.484 163.497 52.592C163.497 52.952 163.641 53.096 163.893 53.096C164.829 53.096 167.169 50.684 167.709 49.46C166.989 49.424 166.341 49.244 165.765 48.92ZM171.741 53.168C172.245 52.916 172.605 52.664 172.821 52.412C172.461 52.628 172.065 52.88 171.741 53.168Z" fill="#003D7E"/>
<path opacity="0.8" d="M89.4884 13.4524C89.8698 13.6037 90.1926 13.8457 90.4567 14.1784C90.7313 14.5134 90.919 14.8945 91.0197 15.3217C91.1309 15.7512 91.1374 16.1845 91.0392 16.6216C90.9152 17.1731 90.6624 17.6411 90.2809 18.0254C89.9016 18.3994 89.4122 18.6556 88.8125 18.7942C88.2256 18.9246 87.568 18.908 86.8395 18.7443L82.7807 17.832L85.2262 6.95148L89.1289 7.82863C89.8678 7.99471 90.4693 8.26111 90.9335 8.62783C91.4001 8.98414 91.7167 9.39968 91.8833 9.87444C92.0499 10.3492 92.0747 10.8468 91.9578 11.3671C91.8127 12.0123 91.5154 12.5085 91.0656 12.8557C90.6286 13.1948 90.1029 13.3937 89.4884 13.4524ZM85.5907 11.9695L87.9791 12.5064C88.6451 12.6561 89.1954 12.6157 89.6298 12.3854C90.0642 12.1551 90.3434 11.7641 90.4674 11.2125C90.5914 10.6609 90.5063 10.1881 90.2122 9.79404C89.9182 9.39997 89.4277 9.12574 88.7408 8.97136L86.3836 8.44156L85.5907 11.9695ZM86.9777 17.5454C87.6854 17.7045 88.2744 17.6619 88.7447 17.4178C89.215 17.1737 89.5169 16.755 89.6502 16.1618C89.7858 15.5582 89.6841 15.0379 89.345 14.6009C89.0083 14.1535 88.4913 13.8514 87.794 13.6947L85.3275 13.1403L84.4644 16.9805L86.9777 17.5454ZM92.792 15.556C92.9885 14.6818 93.3373 13.9567 93.8385 13.3805C94.3421 12.794 94.9418 12.3876 95.6377 12.1614C96.3439 11.9375 97.0769 11.9109 97.8367 12.0817C98.586 12.2501 99.2001 12.5576 99.6792 13.0042C100.158 13.4508 100.478 13.949 100.639 14.499L100.99 12.9379L102.426 13.2607L100.503 21.8153L99.0669 21.4925L99.4248 19.9002C99.0315 20.3366 98.5165 20.6582 97.8797 20.8649C97.2556 21.0635 96.5741 21.0798 95.8352 20.9137C95.0755 20.743 94.4307 20.4013 93.9009 19.8886C93.3711 19.376 93.0053 18.7416 92.8035 17.9857C92.6017 17.2297 92.5978 16.4198 92.792 15.556ZM100.032 17.1996C100.177 16.5544 100.173 15.9631 100.02 15.4259C99.8679 14.8887 99.5959 14.445 99.2045 14.0946C98.8259 13.7362 98.3712 13.4974 97.8405 13.3781C97.3097 13.2588 96.7977 13.2749 96.3045 13.4264C95.8112 13.5779 95.3807 13.8638 95.013 14.2841C94.6452 14.7043 94.3888 15.2371 94.2438 15.8823C94.0964 16.5379 94.0979 17.1396 94.2481 17.6872C94.4007 18.2244 94.6663 18.6722 95.0449 19.0306C95.4258 19.3786 95.8817 19.6123 96.4125 19.7316C96.9432 19.8509 97.4552 19.8347 97.9485 19.6832C98.4544 19.5236 98.8913 19.2337 99.2591 18.8134C99.6292 18.3828 99.8868 17.8448 100.032 17.1996ZM109.03 14.581C110.07 14.8149 110.842 15.3217 111.344 16.1016C111.849 16.871 111.968 17.849 111.702 19.0354L110.568 24.0776L109.164 23.7618L110.251 18.9225C110.443 18.0692 110.376 17.3708 110.05 16.8274C109.726 16.2735 109.195 15.9136 108.456 15.7475C107.706 15.5791 107.055 15.6788 106.503 16.0465C105.96 16.4166 105.589 17.0491 105.387 17.9441L104.324 22.6741L102.904 22.3549L104.826 13.8003L106.247 14.1196L105.973 15.3372C106.353 14.9632 106.808 14.7104 107.341 14.5786C107.884 14.4492 108.447 14.45 109.03 14.581ZM113.323 20.1869C113.522 19.3023 113.872 18.572 114.373 17.9959C114.877 17.4093 115.482 17.0041 116.188 16.7802C116.905 16.5587 117.669 16.5391 118.481 16.7216C119.532 16.9578 120.338 17.4069 120.9 18.0689C121.472 18.7332 121.766 19.5427 121.781 20.4972L120.251 20.1533C120.222 19.6002 120.029 19.1248 119.67 18.7271C119.321 18.3318 118.835 18.0639 118.21 17.9236C117.399 17.7411 116.68 17.8747 116.054 18.3245C115.43 18.7638 115.004 19.4933 114.775 20.5132C114.543 21.5435 114.614 22.3958 114.987 23.0701C115.361 23.7443 115.953 24.1727 116.765 24.3551C117.389 24.4955 117.942 24.4667 118.424 24.2689C118.906 24.071 119.286 23.7191 119.563 23.213L121.093 23.5569C120.668 24.3796 120.052 24.9791 119.246 25.3555C118.442 25.7215 117.525 25.7887 116.495 25.5571C115.683 25.3747 115.001 25.03 114.448 24.5231C113.905 24.0185 113.532 23.3934 113.328 22.6478C113.123 21.9022 113.122 21.0819 113.323 20.1869ZM126.071 27.7094C125.269 27.5293 124.582 27.1834 124.008 26.6718C123.444 26.1625 123.05 25.5328 122.825 24.7825C122.613 24.0242 122.606 23.2027 122.805 22.3181C123.002 21.4439 123.362 20.7159 123.887 20.1341C124.424 19.5442 125.06 19.146 125.795 18.9395C126.532 18.7226 127.307 18.7054 128.119 18.8878C128.931 19.0703 129.623 19.4173 130.197 19.9289C130.773 20.4301 131.174 21.0559 131.399 21.8061C131.634 22.5587 131.652 23.3773 131.454 24.2619C131.255 25.1465 130.882 25.8826 130.334 26.4702C129.799 27.0497 129.158 27.4467 128.41 27.6612C127.662 27.8758 126.882 27.8918 126.071 27.7094ZM126.351 26.4605C126.861 26.5752 127.367 26.5631 127.868 26.4243C128.369 26.2855 128.809 26.0072 129.187 25.5893C129.576 25.1737 129.847 24.6225 130.002 23.9356C130.156 23.2487 130.152 22.6355 129.989 22.096C129.826 21.5565 129.552 21.1231 129.166 20.7959C128.783 20.4583 128.336 20.2322 127.826 20.1176C127.306 20.0006 126.8 20.0127 126.309 20.1538C125.831 20.2869 125.408 20.5635 125.04 20.9838C124.673 21.404 124.411 21.9576 124.257 22.6444C124.1 23.3417 124.093 23.9578 124.235 24.4926C124.388 25.0298 124.651 25.4661 125.023 25.8013C125.399 26.1262 125.841 26.3459 126.351 26.4605ZM137.212 24.3426C137.451 23.2811 137.904 22.3827 138.572 21.6473C139.243 20.9015 140.043 20.3817 140.973 20.0877C141.913 19.7961 142.888 19.7638 143.897 19.9907C145.083 20.2573 146.055 20.7762 146.811 21.5474C147.567 22.3187 148.029 23.2754 148.199 24.4178L146.497 24.0353C146.343 23.3118 146.019 22.7089 145.526 22.2264C145.044 21.7462 144.407 21.4173 143.616 21.2395C142.857 21.0687 142.135 21.0925 141.452 21.3106C140.769 21.5288 140.182 21.9271 139.691 22.5056C139.203 23.0736 138.86 23.7947 138.664 24.6689C138.47 25.5327 138.471 26.331 138.667 27.0639C138.865 27.7863 139.226 28.3922 139.75 28.8818C140.274 29.3713 140.916 29.7014 141.676 29.8721C142.467 30.0499 143.182 30.0302 143.821 29.8131C144.473 29.5879 145.024 29.1814 145.473 28.5936L147.174 28.976C146.535 29.9255 145.708 30.5871 144.695 30.9606C143.684 31.3238 142.585 31.372 141.399 31.1054C140.389 30.8785 139.521 30.4373 138.794 29.7819C138.079 29.1184 137.577 28.3113 137.288 27.3608C136.999 26.4102 136.973 25.4041 137.212 24.3426ZM151.545 22.8412C151.275 22.7804 151.067 22.6353 150.922 22.4059C150.777 22.1764 150.734 21.9264 150.795 21.6559C150.856 21.3853 151.001 21.1774 151.231 21.0321C151.46 20.8869 151.71 20.8447 151.981 20.9055C152.241 20.964 152.438 21.1068 152.573 21.3339C152.718 21.5633 152.76 21.8133 152.7 22.0839C152.639 22.3545 152.494 22.5624 152.264 22.7076C152.045 22.8552 151.806 22.8997 151.545 22.8412ZM151.92 24.385L149.997 32.9396L148.577 32.6203L150.5 24.0657L151.92 24.385ZM155.811 26.4894L154.678 31.5316C154.584 31.9479 154.606 32.2644 154.743 32.481C154.882 32.6873 155.171 32.8396 155.608 32.9378L156.654 33.1729L156.384 34.3749L155.103 34.0872C154.313 33.9094 153.76 33.594 153.447 33.1408C153.133 32.6877 153.07 32.0449 153.257 31.2123L154.39 26.1701L153.282 25.921L153.545 24.7502L154.653 24.9993L155.138 22.845L156.558 23.1643L156.074 25.3186L158.306 25.8203L158.043 26.9911L155.811 26.4894ZM161.073 24.9827C160.803 24.9219 160.595 24.7768 160.45 24.5474C160.304 24.3179 160.262 24.0679 160.323 23.7973C160.384 23.5268 160.529 23.3189 160.758 23.1736C160.988 23.0284 161.238 22.9862 161.508 23.047C161.769 23.1055 161.966 23.2483 162.101 23.4754C162.246 23.7048 162.288 23.9548 162.228 24.2254C162.167 24.496 162.022 24.7039 161.792 24.8491C161.573 24.9967 161.334 25.0412 161.073 24.9827ZM161.448 26.5264L159.525 35.081L158.105 34.7618L160.027 26.2072L161.448 26.5264ZM164.932 28.9822C165.338 28.5377 165.858 28.2173 166.493 28.021C167.127 27.8247 167.803 27.8073 168.521 27.9687C169.292 28.1418 169.943 28.4794 170.475 28.9817C171.007 29.4839 171.375 30.1078 171.579 30.8534C171.786 31.5886 171.791 32.3933 171.594 33.2675C171.4 34.1313 171.05 34.8616 170.544 35.4585C170.038 36.0555 169.431 36.4711 168.722 36.7054C168.024 36.942 167.295 36.975 166.536 36.8042C165.797 36.6382 165.182 36.3307 164.693 35.8817C164.214 35.4352 163.89 34.9305 163.721 34.3678L163.367 35.9445L161.946 35.6252L164.543 24.0734L165.963 24.3927L164.932 28.9822ZM170.142 32.9412C170.287 32.2959 170.284 31.7047 170.131 31.1675C169.979 30.6303 169.707 30.1865 169.315 29.8362C168.934 29.4882 168.478 29.2545 167.948 29.1352C167.427 29.0183 166.914 29.0396 166.408 29.1992C165.915 29.3507 165.478 29.6406 165.098 30.069C164.73 30.4892 164.475 31.0167 164.332 31.6516C164.187 32.2968 164.189 32.8932 164.34 33.4408C164.503 33.9804 164.773 34.4294 165.152 34.7878C165.543 35.1381 165.999 35.3718 166.52 35.4887C167.05 35.608 167.562 35.5919 168.056 35.4404C168.562 35.2808 168.998 34.9909 169.366 34.5706C169.736 34.14 169.995 33.5968 170.142 32.9412ZM172.933 33.5684C173.13 32.6943 173.479 31.9691 173.98 31.393C174.483 30.8065 175.083 30.4001 175.779 30.1738C176.485 29.9499 177.218 29.9234 177.978 30.0941C178.727 30.2625 179.341 30.57 179.821 31.0166C180.3 31.4632 180.619 31.9615 180.78 32.5114L181.131 30.9504L182.567 31.2732L180.644 39.8277L179.208 39.505L179.566 37.9127C179.173 38.3491 178.658 38.6706 178.021 38.8773C177.397 39.076 176.715 39.0923 175.977 38.9262C175.217 38.7554 174.572 38.4137 174.042 37.9011C173.512 37.3884 173.147 36.7541 172.945 35.9981C172.743 35.2421 172.739 34.4322 172.933 33.5684ZM180.173 35.212C180.318 34.5668 180.314 33.9756 180.162 33.4384C180.009 32.9012 179.737 32.4574 179.346 32.1071C178.967 31.7486 178.513 31.5098 177.982 31.3905C177.451 31.2712 176.939 31.2873 176.446 31.4389C175.953 31.5904 175.522 31.8763 175.154 32.2965C174.787 32.7168 174.53 33.2495 174.385 33.8947C174.238 34.5504 174.239 35.152 174.389 35.6996C174.542 36.2368 174.808 36.6846 175.186 37.043C175.567 37.3911 176.023 37.6247 176.554 37.744C177.085 37.8633 177.597 37.8472 178.09 37.6956C178.596 37.5361 179.033 37.2461 179.4 36.8259C179.771 36.3952 180.028 35.8573 180.173 35.212ZM189.171 32.5934C190.212 32.8273 190.983 33.3342 191.486 34.114C191.991 34.8835 192.11 35.8614 191.843 37.0478L190.71 42.09L189.305 41.7743L190.393 36.935C190.584 36.0816 190.517 35.3832 190.191 34.8398C189.867 34.286 189.336 33.926 188.597 33.76C187.848 33.5916 187.197 33.6912 186.644 34.059C186.102 34.429 185.73 35.0616 185.529 35.9566L184.466 40.6866L183.045 40.3673L184.968 31.8127L186.388 32.132L186.115 33.3496C186.494 32.9757 186.95 32.7228 187.482 32.5911C188.025 32.4616 188.588 32.4624 189.171 32.5934ZM197.807 43.6852L195.3 39.1531L194.451 42.9309L193.03 42.6116L195.627 31.0598L197.047 31.379L195.521 38.1696L199.667 35.1166L201.65 35.5622L196.665 38.9186L199.743 44.1203L197.807 43.6852ZM208.651 46.2373C207.933 46.076 207.316 45.806 206.8 45.4276C206.296 45.0411 205.934 44.5879 205.712 44.0679C205.492 43.5375 205.444 42.9745 205.566 42.3789L207.081 42.7193C207.018 43.2409 207.129 43.7196 207.414 44.1553C207.711 44.5829 208.214 44.8763 208.922 45.0353C209.598 45.1874 210.166 45.1402 210.626 44.8937C211.099 44.6391 211.395 44.2465 211.514 43.7157C211.608 43.2994 211.569 42.9355 211.399 42.6238C211.228 42.3122 210.986 42.0501 210.673 41.8377C210.36 41.6252 209.93 41.3754 209.382 41.0883C208.706 40.7396 208.171 40.4224 207.776 40.1369C207.391 39.8536 207.087 39.4792 206.864 39.0136C206.653 38.5399 206.624 37.9648 206.776 37.2883C206.91 36.6951 207.179 36.2035 207.583 35.8134C207.988 35.4233 208.489 35.1642 209.086 35.0361C209.694 34.9103 210.352 34.9269 211.059 35.086C212.079 35.3152 212.855 35.7573 213.385 36.4123C213.926 37.0696 214.144 37.8291 214.037 38.6907L212.476 38.3399C212.518 37.9119 212.381 37.4985 212.066 37.0998C211.754 36.6906 211.28 36.4147 210.645 36.272C210.052 36.1387 209.533 36.186 209.088 36.414C208.646 36.6316 208.362 37.0162 208.239 37.5678C208.15 37.9633 208.186 38.3104 208.349 38.6093C208.522 38.9105 208.754 39.1651 209.046 39.3729C209.351 39.5726 209.782 39.8224 210.337 40.1222C211.011 40.4814 211.544 40.8089 211.937 41.1049C212.332 41.3905 212.64 41.7713 212.861 42.2473C213.084 42.7129 213.119 43.2892 212.964 43.9761C212.845 44.5068 212.592 44.9748 212.206 45.3799C211.82 45.7851 211.318 46.0714 210.701 46.2388C210.084 46.4063 209.401 46.4058 208.651 46.2373ZM225.525 47.3732L220.78 46.3066L219.362 48.5298L217.863 48.1929L224.228 38.259L225.867 38.6274L227.354 50.3262L225.856 49.9893L225.525 47.3732ZM225.379 46.1268L224.647 40.1898L221.445 45.2427L225.379 46.1268ZM79.1506 32.7429C79.4386 31.8019 79.9765 31.1356 80.7642 30.7441C81.5519 30.3527 82.4765 30.2762 83.538 30.5148C84.2456 30.6739 84.8252 30.9408 85.2767 31.3156C85.7409 31.6823 86.054 32.1134 86.2159 32.609C86.3883 33.1069 86.4124 33.6317 86.2885 34.1832C86.1434 34.8285 85.831 35.3432 85.3511 35.7273C84.8816 36.1137 84.335 36.3079 83.7114 36.3099L83.6939 36.3879C84.3329 36.7065 84.7952 37.1548 85.0807 37.7328C85.3662 38.3108 85.4201 38.9953 85.2423 39.7862C85.109 40.3794 84.8533 40.885 84.4751 41.3029C84.0992 41.7104 83.6103 41.9886 83.0083 42.1376C82.4064 42.2865 81.7255 42.2756 80.9658 42.1049C79.8627 41.8569 79.0216 41.3672 78.4425 40.6358C77.8658 39.8939 77.6552 38.9829 77.8105 37.9027L79.1842 38.2114C79.1167 38.8522 79.2571 39.4195 79.6053 39.9132C79.9535 40.4069 80.4919 40.7356 81.2204 40.8993C81.9488 41.0631 82.5425 40.9997 83.0014 40.7093C83.473 40.4107 83.7766 39.9597 83.9123 39.3561C84.0877 38.5756 83.9539 37.9551 83.5107 37.4947C83.0675 37.0343 82.3204 36.686 81.2693 36.4498L80.9102 36.3691L81.1769 35.1827L81.5515 35.2669C82.5113 35.4717 83.2697 35.4781 83.8267 35.2862C84.386 35.084 84.7381 34.6602 84.8832 34.015C85.0071 33.4634 84.9244 32.9802 84.635 32.5653C84.356 32.1527 83.8835 31.8716 83.2175 31.7219C82.5722 31.5769 82.0145 31.6264 81.5441 31.8706C81.0738 32.1147 80.7391 32.5096 80.5399 33.0552L79.1506 32.7429ZM88.3431 34.809C88.6312 33.868 89.169 33.2017 89.9567 32.8102C90.7444 32.4188 91.669 32.3423 92.7305 32.5809C93.4382 32.74 94.0178 33.0069 94.4692 33.3817C94.9335 33.7484 95.2465 34.1795 95.4085 34.6751C95.5808 35.173 95.605 35.6978 95.481 36.2493C95.336 36.8946 95.0235 37.4093 94.5436 37.7934C94.0741 38.1798 93.5276 38.374 92.9039 38.376L92.8864 38.454C93.5254 38.7726 93.9877 39.2209 94.2733 39.7989C94.5588 40.3769 94.6127 41.0614 94.4349 41.8523C94.3016 42.4455 94.0458 42.9511 93.6676 43.369C93.2918 43.7765 92.8029 44.0547 92.2009 44.2037C91.5989 44.3526 90.9181 44.3417 90.1584 44.171C89.0552 43.923 88.2141 43.4333 87.6351 42.7019C87.0584 41.96 86.8477 41.049 87.003 39.9688L88.3768 40.2775C88.3093 40.9183 88.4496 41.4856 88.7978 41.9793C89.1461 42.473 89.6844 42.8017 90.4129 42.9654C91.1414 43.1292 91.7351 43.0658 92.1939 42.7754C92.6655 42.4769 92.9692 42.0258 93.1048 41.4222C93.2803 40.6417 93.1464 40.0212 92.7032 39.5608C92.2601 39.1004 91.5129 38.7521 90.4618 38.5159L90.1028 38.4352L90.3694 37.2488L90.7441 37.333C91.7039 37.5378 92.4623 37.5442 93.0192 37.3523C93.5785 37.1501 93.9307 36.7263 94.0757 36.0811C94.1997 35.5295 94.117 35.0463 93.8276 34.6314C93.5486 34.2188 93.0761 33.9377 92.41 33.788C91.7648 33.643 91.207 33.6925 90.7367 33.9367C90.2664 34.1808 89.9316 34.5757 89.7325 35.1213L88.3431 34.809ZM96.3346 45.5755C96.064 45.5147 95.8561 45.3696 95.7108 45.1401C95.5656 44.9107 95.5234 44.6607 95.5842 44.3901C95.645 44.1195 95.7902 43.9116 96.0196 43.7664C96.249 43.6212 96.499 43.579 96.7696 43.6398C97.0298 43.6983 97.2273 43.8411 97.3621 44.0682C97.5073 44.2976 97.5495 44.5476 97.4887 44.8182C97.4279 45.0888 97.2828 45.2967 97.0534 45.4419C96.8343 45.5894 96.5947 45.634 96.3346 45.5755ZM99.1678 43.4736L99.4099 42.3965L106.594 36.0413L108.296 36.4237L106.626 43.8544L108.187 44.2052L107.91 45.4385L106.349 45.0876L105.784 47.6009L104.379 47.2851L104.944 44.7718L99.1678 43.4736ZM106.62 37.605L101.084 42.6088L105.283 43.5526L106.62 37.605ZM117.998 39.654L111.371 48.8567L109.935 48.5339L116.593 39.4857L110.567 38.1314L110.841 36.9138L118.24 38.5768L117.998 39.654ZM119.793 47.5681C119.764 48.1847 119.9 48.6964 120.202 49.1032C120.515 49.5124 120.994 49.7895 121.639 49.9345C122.503 50.1287 123.213 49.9331 123.771 49.3479C124.34 48.765 124.794 47.6699 125.133 46.0625C124.809 46.4817 124.362 46.7693 123.791 46.9253C123.223 47.0708 122.626 47.0734 122.002 46.9331C121.305 46.7764 120.712 46.4955 120.223 46.0906C119.748 45.6775 119.416 45.1601 119.227 44.5384C119.039 43.9167 119.033 43.2155 119.208 42.435C119.459 41.3214 119.982 40.4989 120.78 39.9675C121.579 39.4257 122.572 39.2881 123.759 39.5547C125.216 39.8822 126.129 40.5849 126.499 41.663C126.879 42.7433 126.859 44.2202 126.438 46.0934C126.143 47.4047 125.78 48.4601 125.349 49.2597C124.928 50.0616 124.387 50.6232 123.724 50.9444C123.072 51.2679 122.262 51.3209 121.294 51.1034C120.233 50.8648 119.47 50.3927 119.005 49.6869C118.54 48.9812 118.366 48.1767 118.482 47.2734L119.793 47.5681ZM122.506 45.7837C123.203 45.9404 123.824 45.8557 124.367 45.5296C124.913 45.1931 125.269 44.6554 125.435 43.9165C125.61 43.136 125.533 42.4572 125.204 41.8802C124.874 41.3033 124.314 40.9259 123.523 40.7481C122.795 40.5844 122.16 40.6824 121.62 41.042C121.091 41.4041 120.742 41.9597 120.573 42.709C120.403 43.4687 120.479 44.1255 120.803 44.6793C121.127 45.2331 121.694 45.6012 122.506 45.7837ZM127.784 52.6441C127.514 52.5833 127.306 52.4382 127.161 52.2087C127.015 51.9793 126.973 51.7293 127.034 51.4587C127.095 51.1881 127.24 50.9802 127.469 50.835C127.699 50.6898 127.949 50.6476 128.219 50.7084C128.48 50.7669 128.677 50.9097 128.812 51.1368C128.957 51.3662 128.999 51.6162 128.939 51.8868C128.878 52.1574 128.733 52.3653 128.503 52.5105C128.284 52.6581 128.045 52.7026 127.784 52.6441ZM131.691 47.3724C132.093 45.5824 132.698 44.2534 133.505 43.3853C134.315 42.5068 135.448 42.2313 136.905 42.5588C138.352 42.8839 139.253 43.6167 139.609 44.7572C139.967 45.8872 139.945 47.3473 139.543 49.1373C139.134 50.9585 138.524 52.3084 137.714 53.1869C136.905 54.0654 135.777 54.342 134.33 54.0169C132.873 53.6894 131.967 52.9555 131.611 51.815C131.255 50.6745 131.281 49.1937 131.691 47.3724ZM138.138 48.8215C138.341 47.9161 138.451 47.1371 138.466 46.4846C138.495 45.8241 138.365 45.2592 138.077 44.7899C137.799 44.323 137.311 44.0112 136.614 43.8544C135.906 43.6954 135.322 43.7663 134.861 44.0671C134.41 44.3703 134.051 44.8253 133.783 45.4321C133.528 46.0308 133.299 46.7828 133.096 47.6882C132.885 48.6249 132.766 49.4235 132.738 50.084C132.72 50.7469 132.85 51.3118 133.128 51.7788C133.416 52.248 133.914 52.5622 134.621 52.7212C135.318 52.878 135.893 52.8047 136.343 52.5015C136.805 52.2007 137.164 51.7457 137.421 51.1366C137.688 50.5298 137.927 49.7581 138.138 48.8215ZM140.283 54.1577C141.843 53.3933 143.074 52.757 143.975 52.249C144.879 51.7305 145.669 51.1592 146.345 50.5349C147.034 49.9025 147.459 49.2273 147.62 48.5092C147.772 47.8328 147.725 47.2646 147.478 46.8047C147.245 46.3367 146.764 46.0208 146.035 45.8571C145.327 45.698 144.726 45.7978 144.23 46.1564C143.746 46.507 143.406 47.0482 143.209 47.7801L141.835 47.4713C142.139 46.3151 142.695 45.4944 143.503 45.0093C144.312 44.5242 145.242 44.3997 146.293 44.636C147.365 44.8769 148.147 45.3641 148.638 46.0977C149.139 46.8336 149.273 47.7218 149.039 48.7626C148.845 49.6263 148.395 50.4108 147.69 51.116C146.998 51.8132 146.254 52.4003 145.458 52.8773C144.664 53.344 143.665 53.8738 142.46 54.4667L147.83 55.6737L147.564 56.8601L140.055 55.1724L140.283 54.1577ZM151.045 48.9017C151.333 47.9606 151.87 47.2944 152.658 46.9029C153.446 46.5114 154.37 46.435 155.432 46.6736C156.14 46.8326 156.719 47.0996 157.171 47.4743C157.635 47.8411 157.948 48.2722 158.11 48.7678C158.282 49.2657 158.306 49.7904 158.182 50.342C158.037 50.9873 157.725 51.5019 157.245 51.886C156.776 52.2725 156.229 52.4667 155.605 52.4687L155.588 52.5467C156.227 52.8653 156.689 53.3135 156.975 53.8916C157.26 54.4696 157.314 55.1541 157.136 55.945C157.003 56.5382 156.747 57.0437 156.369 57.4617C155.993 57.8692 155.504 58.1474 154.902 58.2963C154.3 58.4453 153.619 58.4344 152.86 58.2636C151.757 58.0157 150.916 57.526 150.337 56.7946C149.76 56.0527 149.549 55.1417 149.704 54.0614L151.078 54.3702C151.011 55.011 151.151 55.5782 151.499 56.0719C151.847 56.5656 152.386 56.8944 153.114 57.0581C153.843 57.2218 154.436 57.1585 154.895 56.868C155.367 56.5695 155.671 56.1185 155.806 55.5149C155.982 54.7343 155.848 54.1139 155.405 53.6535C154.961 53.1931 154.214 52.8448 153.163 52.6085L152.804 52.5278L153.071 51.3414L153.446 51.4256C154.405 51.6304 155.164 51.6369 155.721 51.445C156.28 51.2427 156.632 50.819 156.777 50.1738C156.901 49.6222 156.818 49.1389 156.529 48.7241C156.25 48.3115 155.777 48.0304 155.111 47.8807C154.466 47.7356 153.908 47.7852 153.438 48.0293C152.968 48.2735 152.633 48.6684 152.434 49.214L151.045 48.9017ZM167.217 45.9605L159.038 62.3581L157.633 62.0424L165.796 45.6413L167.217 45.9605ZM167.089 55.3285C167.491 53.5385 168.096 52.2094 168.903 51.3413C169.713 50.4628 170.847 50.1873 172.303 50.5148C173.75 50.8399 174.651 51.5727 175.007 52.7132C175.365 53.8433 175.343 55.3033 174.941 57.0933C174.532 58.9145 173.922 60.2644 173.113 61.1429C172.303 62.0214 171.175 62.2981 169.728 61.973C168.271 61.6455 167.365 60.9115 167.009 59.771C166.653 58.6306 166.68 57.1497 167.089 55.3285ZM173.536 56.7775C173.74 55.8721 173.849 55.0932 173.865 54.4407C173.893 53.7801 173.763 53.2152 173.475 52.7459C173.197 52.279 172.71 51.9672 172.012 51.8105C171.305 51.6514 170.72 51.7223 170.259 52.0232C169.808 52.3264 169.449 52.7813 169.181 53.3881C168.927 53.9868 168.697 54.7388 168.494 55.6443C168.283 56.5809 168.164 57.3795 168.136 58.04C168.118 58.7029 168.248 59.2679 168.526 59.7348C168.814 60.2041 169.312 60.5182 170.019 60.6773C170.717 60.834 171.291 60.7608 171.741 60.4576C172.203 60.1567 172.562 59.7017 172.819 59.0926C173.087 58.4859 173.326 57.7142 173.536 56.7775ZM176.891 57.5316C177.294 55.7416 177.898 54.4126 178.706 53.5445C179.516 52.666 180.649 52.3905 182.106 52.718C183.552 53.0431 184.454 53.7759 184.81 54.9164C185.168 56.0464 185.146 57.5065 184.743 59.2965C184.334 61.1177 183.725 62.4676 182.915 63.3461C182.105 64.2246 180.977 64.5012 179.531 64.1761C178.074 63.8486 177.167 63.1147 176.811 61.9742C176.455 60.8337 176.482 59.3529 176.891 57.5316ZM183.338 58.9807C183.542 58.0753 183.651 57.2963 183.667 56.6438C183.695 55.9833 183.565 55.4184 183.277 54.9491C182.999 54.4822 182.512 54.1703 181.815 54.0136C181.107 53.8546 180.523 53.9255 180.061 54.2263C179.611 54.5295 179.251 54.9845 178.984 55.5913C178.729 56.19 178.5 56.942 178.296 57.8474C178.086 58.7841 177.966 59.5826 177.938 60.2432C177.92 60.9061 178.05 61.471 178.328 61.9379C178.616 62.4072 179.114 62.7214 179.822 62.8804C180.519 63.0371 181.093 62.9639 181.544 62.6607C182.005 62.3599 182.364 61.9049 182.621 61.2958C182.889 60.689 183.128 59.9173 183.338 58.9807ZM186.694 59.7348C187.096 57.9448 187.701 56.6157 188.508 55.7477C189.318 54.8692 190.451 54.5936 191.908 54.9211C193.355 55.2462 194.256 55.979 194.612 57.1195C194.97 58.2496 194.948 59.7096 194.546 61.4996C194.136 63.3209 193.527 64.6707 192.717 65.5492C191.908 66.4277 190.779 66.7044 189.333 66.3793C187.876 66.0518 186.969 65.3178 186.614 64.1774C186.258 63.0369 186.284 61.556 186.694 59.7348ZM193.141 61.1839C193.344 60.2784 193.454 59.4995 193.469 58.847C193.497 58.1864 193.368 57.6215 193.079 57.1523C192.802 56.6853 192.314 56.3735 191.617 56.2168C190.909 56.0577 190.325 56.1286 189.864 56.4295C189.413 56.7327 189.054 57.1877 188.786 57.7944C188.531 58.3931 188.302 59.1452 188.099 60.0506C187.888 60.9872 187.769 61.7858 187.741 62.4464C187.723 63.1093 187.853 63.6742 188.13 64.1411C188.418 64.6104 188.916 64.9245 189.624 65.0836C190.321 65.2403 190.895 65.1671 191.346 64.8639C191.807 64.563 192.167 64.108 192.424 63.4989C192.691 62.8922 192.93 62.1205 193.141 61.1839ZM197.072 57.6233L197.363 56.3276L200.298 56.9872L197.761 68.2737L196.325 67.9509L198.571 57.9601L197.072 57.6233ZM207.789 63.8857L207.519 65.0877L201.29 63.6878L201.56 62.4858L207.789 63.8857ZM212.179 65.3481C211.648 64.9882 211.275 64.5546 211.061 64.0473C210.847 63.5401 210.811 62.9742 210.951 62.3498C211.077 61.7878 211.331 61.3146 211.713 60.9303C212.097 60.5355 212.594 60.2701 213.204 60.1339C213.827 59.9896 214.533 60.0063 215.324 60.1841C216.115 60.3619 216.756 60.648 217.247 61.0426C217.75 61.4291 218.091 61.8828 218.269 62.4039C218.46 62.9169 218.492 63.4544 218.366 64.0164C218.23 64.62 217.95 65.1145 217.524 65.4999C217.101 65.8749 216.584 66.1085 215.973 66.2007C216.574 66.5435 217.005 67.0067 217.268 67.5905C217.543 68.1662 217.602 68.8026 217.445 69.4999C217.293 70.1764 216.993 70.7321 216.546 71.1672C216.1 71.5919 215.539 71.8758 214.862 72.0187C214.198 72.1537 213.47 72.1322 212.679 71.9545C211.888 71.7767 211.221 71.4847 210.678 71.0784C210.148 70.6641 209.773 70.1698 209.552 69.5954C209.334 69.0106 209.301 68.38 209.453 67.7035C209.609 67.0062 209.931 66.4499 210.418 66.0346C210.905 65.6193 211.492 65.3904 212.179 65.3481ZM216.954 63.8793C217.096 63.2445 216.998 62.7086 216.659 62.2716C216.32 61.8346 215.786 61.5342 215.058 61.3705C214.34 61.2091 213.734 61.2533 213.24 61.5032C212.747 61.7531 212.428 62.2006 212.283 62.8459C212.152 63.4287 212.26 63.9449 212.607 64.3947C212.964 64.8468 213.487 65.15 214.174 65.3044C214.871 65.4611 215.473 65.4105 215.979 65.1525C216.498 64.8865 216.823 64.4621 216.954 63.8793ZM213.928 66.3971C213.158 66.224 212.487 66.2646 211.916 66.5189C211.348 66.7628 210.983 67.2438 210.821 67.9619C210.671 68.628 210.785 69.2166 211.162 69.7277C211.55 70.2412 212.144 70.588 212.946 70.7681C213.747 70.9482 214.427 70.8879 214.987 70.5873C215.546 70.2867 215.901 69.8034 216.051 69.1373C216.207 68.44 216.087 67.8555 215.691 67.3836C215.296 66.9014 214.708 66.5725 213.928 66.3971ZM219.942 67.2077C220.345 65.4177 220.949 64.0887 221.757 63.2206C222.567 62.3421 223.7 62.0666 225.157 62.394C226.603 62.7192 227.505 63.452 227.861 64.5924C228.219 65.7225 228.197 67.1825 227.794 68.9725C227.385 70.7938 226.776 72.1436 225.966 73.0221C225.156 73.9006 224.028 74.1773 222.582 73.8522C221.125 73.5247 220.218 72.7907 219.862 71.6503C219.506 70.5098 219.533 69.029 219.942 67.2077ZM226.389 68.6568C226.593 67.7514 226.702 66.9724 226.718 66.3199C226.746 65.6594 226.616 65.0944 226.328 64.6252C226.05 64.1582 225.563 63.8464 224.866 63.6897C224.158 63.5307 223.574 63.6016 223.112 63.9024C222.662 64.2056 222.302 64.6606 222.035 65.2673C221.78 65.866 221.551 66.6181 221.347 67.5235C221.137 68.4601 221.017 69.2587 220.989 69.9193C220.971 70.5822 221.101 71.1471 221.379 71.614C221.667 72.0833 222.165 72.3975 222.873 72.5565C223.57 72.7132 224.144 72.64 224.595 72.3368C225.056 72.0359 225.415 71.581 225.672 70.9719C225.94 70.3651 226.179 69.5934 226.389 68.6568Z" fill="black"/>
</svg>
