<svg width="63" height="37" viewBox="0 0 63 37" fill="none" xmlns="http://www.w3.org/2000/svg">
<path d="M0 24.4292C0 17.9524 5.2933 12.91 12.1919 12.91C16.1836 12.91 19.8282 14.6922 21.9109 17.3873L18.9171 20.3866C18.123 19.3681 17.1098 18.542 15.9529 17.97C14.7961 17.398 13.5253 17.0948 12.2354 17.083C8.11351 17.083 4.81605 20.1693 4.81605 24.4292C4.81605 28.7326 8.11351 31.819 12.2354 31.819C13.5715 31.8173 14.8893 31.5066 16.0859 30.9109C17.2825 30.3153 18.3256 29.4508 19.134 28.385L22.0843 31.2973C20.0885 34.1228 16.2704 35.9919 12.1919 35.9919C5.2933 35.9919 0 30.9496 0 24.4292Z" fill="white"/>
<path d="M25.9893 13.6921H30.7185V35.2093H25.9893V13.6921Z" fill="white"/>
<path d="M39.526 29.4288V17.6923H34.3628V13.6932H39.7429V9.08543L44.1685 6.91199V13.6932H51.1973V17.6923H44.1685V28.6464C44.1685 30.8198 45.3833 31.7761 47.6828 31.7761C48.8794 31.7823 50.0633 31.5303 51.1539 31.0372V35.1232C49.7874 35.7239 48.3071 36.0206 46.8152 35.9926C42.6066 35.9926 39.526 33.6888 39.526 29.4288Z" fill="white"/>
<path d="M54.9287 13.6921H59.6581V35.2093H54.9287V13.6921Z" fill="white"/>
<path d="M42.7808 6.90766e-05C46.6649 -0.00921784 50.4942 0.91805 53.9453 2.70357C57.3964 4.48908 60.368 7.08041 62.6091 10.2587H57.0987C55.2927 8.2475 53.0847 6.63926 50.618 5.53839C48.1513 4.43752 45.4811 3.86861 42.7808 3.86861C40.0805 3.86861 37.4103 4.43752 34.9436 5.53839C32.4769 6.63926 30.2689 8.2475 28.4629 10.2587H22.9526C25.1937 7.08041 28.1652 4.48908 31.6163 2.70357C35.0674 0.91805 38.8967 -0.00921784 42.7808 6.90766e-05Z" fill="white"/>
</svg>
