<svg width="595" height="842" viewBox="0 0 595 842" fill="none" xmlns="http://www.w3.org/2000/svg">
<g clip-path="url(#clip0_4002_27)">
<rect width="595" height="842" fill="white"/>
<g opacity="0.05">
<path d="M-90 728.863C-90 670.572 -42.1082 625.191 20.3078 625.191C56.4232 625.191 89.3977 641.23 108.241 665.486L81.1543 692.48C73.9703 683.313 64.8032 675.878 54.3358 670.73C43.8694 665.582 32.3721 662.854 20.7009 662.747C-16.5921 662.747 -46.4263 690.524 -46.4263 728.863C-46.4263 767.594 -16.5921 795.371 20.7009 795.371C32.7898 795.356 44.7126 792.559 55.5387 787.198C66.3657 781.838 75.8032 774.057 83.1169 764.465L109.811 790.676C91.7533 816.105 57.2084 832.928 20.3078 832.928C-42.1082 832.928 -90 787.547 -90 728.863Z" fill="#255BE3"/>
<path d="M145.143 632.23H187.931V825.884H145.143V632.23Z" fill="#255BE3"/>
<path d="M267.617 773.859V668.231H220.903V632.238H269.58V590.769L309.621 571.208V632.238H373.214V668.231H309.621V766.817C309.621 786.378 320.612 794.985 341.417 794.985C352.243 795.041 362.954 792.773 372.822 788.335V825.109C360.458 830.515 347.065 833.185 333.567 832.934C295.489 832.934 267.617 812.2 267.617 773.859Z" fill="#255BE3"/>
<path d="M406.974 632.23H449.763V825.884H406.974V632.23Z" fill="#255BE3"/>
<path d="M297.063 509.001C332.205 508.917 366.851 517.262 398.075 533.332C429.299 549.402 456.186 572.724 476.462 601.328H426.607C410.266 583.227 390.289 568.753 367.971 558.846C345.654 548.938 321.495 543.818 297.063 543.818C272.632 543.818 248.473 548.938 226.155 558.846C203.838 568.753 183.86 583.227 167.52 601.328H117.666C137.942 572.724 164.827 549.402 196.052 533.332C227.276 517.262 261.922 508.917 297.063 509.001Z" fill="#FF3C28"/>
</g>
</g>
<defs>
<clipPath id="clip0_4002_27">
<rect width="595" height="842" fill="white"/>
</clipPath>
</defs>
</svg>
