<svg width="718" height="420" viewBox="0 0 718 420" fill="none" xmlns="http://www.w3.org/2000/svg">
<path d="M0 277.305C0 203.784 60.3269 146.547 138.949 146.547C184.442 146.547 225.978 166.777 249.714 197.369L215.594 231.416C206.545 219.854 194.998 210.477 181.812 203.984C168.628 197.491 154.146 194.05 139.444 193.915C92.4683 193.915 54.8876 228.949 54.8876 277.305C54.8876 326.155 92.4683 361.189 139.444 361.189C154.672 361.169 169.691 357.642 183.328 350.88C196.966 344.12 208.854 334.306 218.067 322.208L251.691 355.267C228.945 387.34 185.431 408.557 138.949 408.557C60.3269 408.557 0 351.32 0 277.305Z" fill="#255BE3"/>
<path d="M296.197 155.425H350.096V399.673H296.197V155.425Z" fill="#255BE3"/>
<path d="M450.472 334.057V200.832H391.628V155.436H452.944V103.132L503.382 78.4604V155.436H583.488V200.832H503.382V325.175C503.382 349.846 517.227 360.702 543.434 360.702C557.071 360.773 570.564 357.912 582.994 352.315V398.696C567.419 405.515 550.549 408.882 533.546 408.565C485.581 408.565 450.472 382.414 450.472 334.057Z" fill="#255BE3"/>
<path d="M626.013 155.425H679.913V399.673H626.013V155.425Z" fill="#255BE3"/>
<path d="M487.564 0.000784113C531.83 -0.104635 575.472 10.4211 614.804 30.6892C654.135 50.9571 688.002 80.3722 713.543 116.45H650.743C630.16 93.6202 604.995 75.3646 576.883 62.8682C548.771 50.3718 518.339 43.914 487.564 43.914C456.789 43.914 426.357 50.3718 398.245 62.8682C370.133 75.3646 344.968 93.6202 324.385 116.45H261.586C287.127 80.3722 320.993 50.9571 360.325 30.6892C399.656 10.4211 443.298 -0.104635 487.564 0.000784113Z" fill="#FF3C28"/>
</svg>
